<?xml version="1.0" encoding="UTF-8" standalone="no"?>
<svg
   xmlns:dc="http://purl.org/dc/elements/1.1/"
   xmlns:cc="http://creativecommons.org/ns#"
   xmlns:rdf="http://www.w3.org/1999/02/22-rdf-syntax-ns#"
   xmlns:svg="http://www.w3.org/2000/svg"
   xmlns="http://www.w3.org/2000/svg"
   xmlns:sodipodi="http://sodipodi.sourceforge.net/DTD/sodipodi-0.dtd"
   xmlns:inkscape="http://www.inkscape.org/namespaces/inkscape"
   width="128.0px"
   height="128.0px"
   viewBox="0 0 128.0 128.0"
   version="1.1"
   id="SVGRoot"
   sodipodi:docname="icon.svg"
   inkscape:version="1.0.2 (e86c870879, 2021-01-15)"
   inkscape:export-filename="C:\Users\robot\Documents\zwipe\brand\icon.png"
   inkscape:export-xdpi="96"
   inkscape:export-ydpi="96">
  <defs
     id="defs1992" />
  <sodipodi:namedview
     id="base"
     pagecolor="#ca413b"
     bordercolor="#666666"
     borderopacity="1.0"
     inkscape:pageopacity="1"
     inkscape:pageshadow="2"
     inkscape:zoom="3.959798"
     inkscape:cx="108.90552"
     inkscape:cy="84.929796"
     inkscape:document-units="px"
     inkscape:current-layer="layer1"
     inkscape:document-rotation="0"
     showgrid="false"
     inkscape:window-width="1858"
     inkscape:window-height="1057"
     inkscape:window-x="54"
     inkscape:window-y="488"
     inkscape:window-maximized="1"
     inkscape:pagecheckerboard="false">
    <inkscape:grid
       type="xygrid"
       id="grid2562" />
  </sodipodi:namedview>
  <metadata
     id="metadata1995">
    <rdf:RDF>
      <cc:Work
         rdf:about="">
        <dc:format>image/svg+xml</dc:format>
        <dc:type
           rdf:resource="http://purl.org/dc/dcmitype/StillImage" />
        <dc:title />
      </cc:Work>
    </rdf:RDF>
  </metadata>
  <g
     inkscape:label="Layer 1"
     inkscape:groupmode="layer"
     id="layer1">
    <path
       d="m 69.66767,106.63342 c -3.014072,0 -5.582545,-0.0743 -7.705422,-0.2228 -2.122889,-0.14853 -3.852716,-0.40393 -5.189484,-0.76438 -1.338581,-0.36046 -2.314892,-0.84952 -2.930744,-1.46356 -0.614041,-0.61586 -0.92196,-1.39111 -0.92196,-2.32576 0,-1.1031 0.316975,-2.302204 0.954562,-3.597311 0.637601,-1.295104 1.380251,-2.621004 2.227952,-3.979505 L 88.962021,41.169921 c 1.358502,-2.206206 2.494213,-4.128035 3.407118,-5.761859 0.912918,-1.635636 1.633835,-3.088328 2.164546,-4.361697 0.530726,-1.275181 0.902047,-2.400022 1.115787,-3.376332 0.211929,-0.976309 0.31699,-1.909148 0.31699,-2.802136 0,-1.31503 -0.55065,-2.503266 -1.655569,-3.564708 -1.103109,-1.061444 -2.822057,-1.974358 -5.15687,-2.738742 -2.336626,-0.764384 -5.318083,-1.358502 -8.948008,-1.782354 -3.629911,-0.425664 -7.969871,-0.637592 -13.021692,-0.637592 -2.631865,0 -5.370607,0.126799 -8.214411,0.382194 -2.845603,0.255398 -5.647737,0.700986 -8.406402,1.336766 -2.760475,0.63759 -5.381483,1.496163 -7.864825,2.579342 -2.483342,1.083179 -4.669624,2.430813 -6.558847,4.042902 -1.889224,1.6139 -3.385387,3.555653 -4.490302,5.827068 -1.103104,2.271415 -1.655562,4.892418 -1.655562,7.864822 0,1.485294 0.277135,2.972401 0.827782,4.457697 0.552456,1.485294 1.369368,2.843798 2.452548,4.075506 1.083179,1.231709 2.430813,2.227944 4.042902,2.992328 1.6139,0.764384 3.481388,1.146575 5.604274,1.146575 1.061443,0 2.164546,-0.179322 3.311121,-0.54159 1.146578,-0.360455 2.197154,-0.912912 3.15173,-1.65556 0.956387,-0.742649 1.740695,-1.697222 2.356548,-2.865534 0.615853,-1.166501 0.923772,-2.579343 0.923772,-4.234904 0,-0.891177 -0.148519,-1.66643 -0.445584,-2.323944 -0.297053,-0.657515 -0.657511,-1.199104 -1.083173,-1.622956 -0.423863,-0.425664 -0.869449,-0.742649 -1.336769,-0.956386 -0.467332,-0.211927 -0.849525,-0.316984 -1.146577,-0.316984 -0.423851,0 -0.838645,0.07426 -1.240767,0.222794 -0.403927,0.14853 -0.818722,0.316984 -1.242576,0.508986 -0.423852,0.19019 -0.880309,0.360455 -1.369369,0.508985 -0.487249,0.148529 -1.02884,0.222794 -1.622958,0.222794 -0.891177,0.08514 -1.677297,-0.02173 -2.356548,-0.318794 -0.594119,-0.211927 -1.135708,-0.63578 -1.624768,-1.273371 -0.48725,-0.635778 -0.731781,-1.592164 -0.731781,-2.865532 0,-2.29134 0.690119,-4.213169 2.070358,-5.76186 1.378426,-1.550504 3.119121,-2.802138 5.222082,-3.758524 2.101151,-0.954573 4.403363,-1.644692 6.90843,-2.068544 2.505082,-0.425664 4.903288,-0.63759 7.196444,-0.63759 0.89117,0 2.079419,0.01086 3.564707,0.0326 1.487113,0.02173 2.950667,0.148529 4.394297,0.382192 1.443644,0.233662 2.695272,0.635779 3.756723,1.209972 1.061438,0.572383 1.592163,1.411031 1.592163,2.514134 0,0.510797 -0.137665,1.12484 -0.412983,1.847563 -0.277142,0.720913 -0.6376,1.496164 -1.083185,2.323944 -0.445586,0.82778 -0.943709,1.677298 -1.496168,2.54674 -0.552448,0.87125 -1.083174,1.729825 -1.592164,2.579341 L 36.744824,85.428105 c -1.443635,2.293152 -2.675343,4.298302 -3.693314,6.017259 -1.019783,1.72077 -1.856619,3.236858 -2.515946,4.553699 -0.657515,1.316842 -1.135709,2.505077 -1.432768,3.56652 -0.297059,1.061447 -0.445587,2.079417 -0.445587,3.055727 0,1.14657 0.414796,2.27141 1.242576,3.37452 0.827781,1.10491 2.429001,2.09209 4.807285,2.96153 2.376472,0.87125 5.709333,1.57043 9.998576,2.10115 4.287436,0.53072 9.869968,0.79699 16.747612,0.79699 5.772723,0 10.994812,-0.34053 15.664439,-1.01979 4.669615,-0.67925 8.649129,-1.84574 11.940318,-3.50131 3.289389,-1.65555 5.827072,-3.87444 7.609427,-6.65485 1.78235,-2.780397 2.67535,-6.27265 2.67535,-10.474952 0,-1.65556 -0.27714,-3.258594 -0.82779,-4.809098 -0.55245,-1.54869 -1.38024,-2.918061 -2.48515,-4.106297 -1.103106,-1.188236 -2.472477,-2.144622 -4.1063,-2.865535 -1.63382,-0.722721 -3.533914,-1.083179 -5.700274,-1.083179 -1.103109,0 -2.249673,0.181134 -3.437922,0.541591 -1.188236,0.360456 -2.271408,0.923779 -3.24772,1.688165 -0.97631,0.764383 -1.782353,1.740694 -2.41994,2.92893 -0.637601,1.188236 -0.954576,2.63187 -0.954576,4.329094 0,0.892988 0.126785,1.666428 0.382192,2.325755 0.253584,0.657514 0.594118,1.199105 1.017969,1.622957 0.425662,0.425664 0.871248,0.742647 1.336769,0.954574 0.467319,0.213738 0.93464,0.318794 1.401972,0.318794 0.423851,0 0.838646,-0.07426 1.240761,-0.222793 0.403928,-0.148529 0.82778,-0.318795 1.275188,-0.508985 0.445584,-0.19019 0.92196,-0.360458 1.432763,-0.508987 0.508991,-0.148529 1.081361,-0.222794 1.718961,-0.222794 0.847701,-0.08512 1.612087,0.01992 2.291332,0.316984 0.594118,0.255399 1.13571,0.700986 1.624778,1.338577 0.487243,0.635779 0.73177,1.61209 0.73177,2.928931 0,2.208019 -0.668378,4.042902 -2.005146,5.508268 -1.338581,1.46538 -3.024926,2.64274 -5.062688,3.53392 -2.037747,0.89118 -4.287422,1.51791 -6.750845,1.87836 -2.4616,0.36045 -4.839895,0.54159 -7.131226,0.54159 z"
       id="path2"
       style="fill:#ffffff;stroke-width:1.42009" />
  </g>
</svg>
