<svg viewBox="0 -46 266.15077383924114 100" xmlns="http://www.w3.org/2000/svg" xmlns:xlink="http://www.w3.org/1999/xlink" version="1.1" class="jsx-2263963463 artboard-inner" style="width: 340px; height: 127.747px; max-height: 100%;"><g transform="translate(-0.9985022466300548 28.438342486270585) scale(1.420092084096078)" fill="#FFFFFF"><g id="line1"><path d="M23.344-2.461C21.680-2.461 20.262-2.502 19.090-2.584C17.918-2.666 16.963-2.807 16.225-3.006C15.486-3.205 14.947-3.475 14.607-3.814C14.268-4.154 14.098-4.582 14.098-5.098C14.098-5.707 14.273-6.369 14.625-7.084C14.977-7.799 15.387-8.531 15.855-9.281L33.996-38.602C34.746-39.820 35.373-40.881 35.877-41.783C36.381-42.686 36.779-43.488 37.072-44.191C37.365-44.895 37.570-45.516 37.688-46.055C37.805-46.594 37.863-47.109 37.863-47.602C37.863-48.328 37.559-48.984 36.949-49.570C36.340-50.156 35.391-50.660 34.102-51.082C32.812-51.504 31.166-51.832 29.162-52.066C27.158-52.301 24.762-52.418 21.973-52.418C20.520-52.418 19.008-52.348 17.438-52.207C15.867-52.066 14.320-51.820 12.797-51.469C11.273-51.117 9.826-50.643 8.455-50.045C7.084-49.447 5.877-48.703 4.834-47.813C3.791-46.922 2.965-45.850 2.355-44.596C1.746-43.342 1.441-41.895 1.441-40.254C1.441-39.434 1.594-38.613 1.898-37.793C2.203-36.973 2.654-36.223 3.252-35.543C3.850-34.863 4.594-34.313 5.484-33.891C6.375-33.469 7.406-33.258 8.578-33.258C9.164-33.258 9.773-33.357 10.406-33.557C11.039-33.756 11.619-34.061 12.146-34.471C12.674-34.881 13.107-35.408 13.447-36.053C13.787-36.697 13.957-37.477 13.957-38.391C13.957-38.883 13.875-39.311 13.711-39.674C13.547-40.037 13.348-40.336 13.113-40.570C12.879-40.805 12.633-40.980 12.375-41.098C12.117-41.215 11.906-41.273 11.742-41.273C11.508-41.273 11.279-41.232 11.057-41.150C10.834-41.068 10.605-40.975 10.371-40.869C10.137-40.764 9.885-40.670 9.615-40.588C9.346-40.506 9.047-40.465 8.719-40.465C8.227-40.418 7.793-40.477 7.418-40.641C7.090-40.758 6.791-40.992 6.521-41.344C6.252-41.695 6.117-42.223 6.117-42.926C6.117-44.191 6.498-45.252 7.260-46.107C8.021-46.963 8.982-47.654 10.143-48.182C11.303-48.709 12.574-49.090 13.957-49.324C15.340-49.559 16.664-49.676 17.930-49.676C18.422-49.676 19.078-49.670 19.898-49.658C20.719-49.646 21.527-49.576 22.324-49.447C23.121-49.318 23.812-49.096 24.398-48.779C24.984-48.463 25.277-48.000 25.277-47.391C25.277-47.109 25.201-46.770 25.049-46.371C24.896-45.973 24.697-45.545 24.451-45.088C24.205-44.631 23.930-44.162 23.625-43.682C23.320-43.201 23.027-42.727 22.746-42.258L5.168-14.168C4.371-12.902 3.691-11.795 3.129-10.846C2.566-9.896 2.104-9.059 1.740-8.332C1.377-7.605 1.113-6.949 0.949-6.363C0.785-5.777 0.703-5.215 0.703-4.676C0.703-4.043 0.932-3.422 1.389-2.813C1.846-2.203 2.730-1.658 4.043-1.178C5.355-0.697 7.195-0.311 9.563-0.018C11.930 0.275 15.012 0.422 18.809 0.422C21.996 0.422 24.879 0.234 27.457-0.141C30.035-0.516 32.232-1.160 34.049-2.074C35.865-2.988 37.266-4.213 38.250-5.748C39.234-7.283 39.727-9.211 39.727-11.531C39.727-12.445 39.574-13.330 39.270-14.186C38.965-15.041 38.508-15.797 37.898-16.453C37.289-17.109 36.533-17.637 35.631-18.035C34.729-18.434 33.680-18.633 32.484-18.633C31.875-18.633 31.242-18.533 30.586-18.334C29.930-18.135 29.332-17.824 28.793-17.402C28.254-16.980 27.809-16.441 27.457-15.785C27.105-15.129 26.930-14.332 26.930-13.395C26.930-12.902 27-12.475 27.141-12.111C27.281-11.748 27.469-11.449 27.703-11.215C27.938-10.980 28.184-10.805 28.441-10.688C28.699-10.570 28.957-10.512 29.215-10.512C29.449-10.512 29.678-10.553 29.900-10.635C30.123-10.717 30.357-10.811 30.604-10.916C30.850-11.021 31.113-11.115 31.395-11.197C31.676-11.279 31.992-11.320 32.344-11.320C32.812-11.367 33.234-11.309 33.609-11.145C33.937-11.004 34.236-10.758 34.506-10.406C34.775-10.055 34.910-9.516 34.910-8.789C34.910-7.570 34.541-6.557 33.803-5.748C33.064-4.939 32.133-4.289 31.008-3.797C29.883-3.305 28.641-2.959 27.281-2.760C25.922-2.561 24.609-2.461 23.344-2.461Z"></path><path d="M89.121-25.348C89.121-23.098 88.986-20.918 88.717-18.809C88.447-16.699 88.066-14.836 87.574-13.219C87.082-11.602 86.496-10.301 85.816-9.316C85.137-8.332 84.398-7.840 83.602-7.840C82.852-7.840 82.201-8.338 81.650-9.334C81.100-10.330 80.590-11.777 80.121-13.676C79.652-15.574 79.207-17.906 78.785-20.672C78.363-23.438 77.930-26.578 77.484-30.094C77.320-31.383 77.098-32.443 76.816-33.275C76.535-34.107 76.166-34.764 75.709-35.244C75.252-35.725 74.678-36.053 73.986-36.229C73.295-36.404 72.445-36.492 71.438-36.492C69.141-36.492 67.611-35.941 66.850-34.840C66.088-33.738 65.883-32.086 66.234-29.883C66.375-29.109 66.504-28.219 66.621-27.211C66.738-26.203 66.861-25.119 66.990-23.959C67.119-22.799 67.266-21.586 67.430-20.320C67.594-19.055 67.793-17.777 68.027-16.488C67.746-15.199 67.418-14.021 67.043-12.955C66.668-11.889 66.270-10.980 65.848-10.230C65.426-9.480 64.980-8.895 64.512-8.473C64.043-8.051 63.563-7.840 63.070-7.840C62.320-7.840 61.670-8.303 61.119-9.229C60.568-10.154 60.059-11.525 59.590-13.342C59.121-15.158 58.682-17.414 58.271-20.109C57.861-22.805 57.445-25.922 57.023-29.461C56.930-30.117 56.777-30.855 56.566-31.676C56.355-32.496 55.998-33.264 55.494-33.979C54.990-34.693 54.305-35.291 53.438-35.771C52.570-36.252 51.434-36.492 50.027-36.492C49.043-36.492 48.105-36.387 47.215-36.176C46.324-35.965 45.492-35.695 44.719-35.367C43.945-35.039 43.225-34.658 42.557-34.225C41.889-33.791 41.285-33.352 40.746-32.906L41.484-32.027C41.812-32.285 42.117-32.484 42.398-32.625C42.680-32.766 43.020-32.836 43.418-32.836C44.168-32.836 44.701-32.578 45.018-32.063C45.334-31.547 45.574-30.820 45.738-29.883C45.879-28.852 46.020-27.633 46.160-26.227C46.301-24.820 46.477-23.309 46.688-21.691C46.898-20.074 47.156-18.398 47.461-16.664C47.766-14.930 48.146-13.242 48.604-11.602C49.061-9.961 49.605-8.402 50.238-6.926C50.871-5.449 51.621-4.154 52.488-3.041C53.355-1.928 54.357-1.049 55.494-0.404C56.631 0.240 57.938 0.563 59.414 0.563C60.609 0.563 61.723 0.305 62.754-0.211C63.785-0.727 64.729-1.441 65.584-2.355C66.439-3.270 67.219-4.342 67.922-5.572C68.625-6.803 69.246-8.133 69.785-9.563C70.254-8.156 70.799-6.838 71.420-5.607C72.041-4.377 72.762-3.305 73.582-2.391C74.402-1.477 75.334-0.756 76.377-0.229C77.420 0.299 78.598 0.563 79.910 0.563C81.574 0.563 83.063 0.088 84.375-0.861C85.687-1.811 86.848-3.076 87.855-4.658C88.863-6.240 89.725-8.051 90.439-10.090C91.154-12.129 91.740-14.238 92.197-16.418C92.654-18.598 92.988-20.766 93.199-22.922C93.410-25.078 93.516-27.059 93.516-28.863C93.516-30.129 93.475-31.318 93.393-32.432C93.311-33.545 93.164-34.441 92.953-35.121C92.766-35.660 92.520-36.023 92.215-36.211C91.910-36.398 91.418-36.492 90.738-36.492C90.480-36.492 90.146-36.457 89.736-36.387C89.326-36.316 88.928-36.199 88.541-36.035C88.154-35.871 87.820-35.672 87.539-35.438C87.258-35.203 87.117-34.910 87.117-34.559C87.117-34.184 87.223-33.779 87.434-33.346C87.645-32.912 87.873-32.361 88.119-31.693C88.365-31.025 88.594-30.188 88.805-29.180C89.016-28.172 89.121-26.895 89.121-25.348Z"></path><path d="M111.586-3.164L111.586-30.656C111.586-31.172 111.545-31.770 111.463-32.449C111.381-33.129 111.141-33.768 110.742-34.365C110.344-34.963 109.723-35.467 108.879-35.877C108.035-36.287 106.852-36.492 105.328-36.492C104.344-36.492 103.406-36.387 102.516-36.176C101.625-35.965 100.793-35.695 100.020-35.367C99.246-35.039 98.525-34.658 97.857-34.225C97.189-33.791 96.586-33.352 96.047-32.906L96.785-32.027C97.113-32.285 97.418-32.484 97.699-32.625C97.980-32.766 98.320-32.836 98.719-32.836C99.469-32.836 100.002-32.584 100.318-32.080C100.635-31.576 100.793-30.984 100.793-30.305L100.793-3.164C100.793-2.906 100.834-2.566 100.916-2.145C100.998-1.723 101.215-1.312 101.566-0.914C101.918-0.516 102.445-0.170 103.148 0.123C103.852 0.416 104.824 0.563 106.066 0.563C107.309 0.563 108.293 0.428 109.020 0.158C109.746-0.111 110.303-0.439 110.689-0.826C111.076-1.213 111.322-1.623 111.428-2.057C111.533-2.490 111.586-2.859 111.586-3.164ZM99.703-44.508C99.703-43.828 99.850-43.195 100.143-42.609C100.436-42.023 100.846-41.514 101.373-41.080C101.900-40.646 102.510-40.301 103.201-40.043C103.893-39.785 104.648-39.656 105.469-39.656C106.266-39.656 107.010-39.785 107.701-40.043C108.393-40.301 108.996-40.646 109.512-41.080C110.027-41.514 110.432-42.023 110.725-42.609C111.018-43.195 111.164-43.828 111.164-44.508C111.164-45.164 111.018-45.791 110.725-46.389C110.432-46.986 110.027-47.508 109.512-47.953C108.996-48.398 108.393-48.750 107.701-49.008C107.010-49.266 106.266-49.395 105.469-49.395C104.648-49.395 103.893-49.266 103.201-49.008C102.510-48.750 101.900-48.398 101.373-47.953C100.846-47.508 100.436-46.986 100.143-46.389C99.850-45.791 99.703-45.164 99.703-44.508Z"></path><path d="M120.867-30.305L120.867 14.273C120.867 14.531 120.914 14.865 121.008 15.275C121.102 15.686 121.336 16.096 121.711 16.506C122.086 16.916 122.631 17.268 123.346 17.561C124.061 17.854 125.039 18 126.281 18C127.523 18 128.502 17.859 129.217 17.578C129.932 17.297 130.471 16.963 130.834 16.576C131.197 16.189 131.426 15.785 131.520 15.363C131.613 14.941 131.660 14.578 131.660 14.273L131.660-2.883C131.941-2.625 132.316-2.303 132.785-1.916C133.254-1.529 133.840-1.148 134.543-0.773C135.246-0.398 136.084-0.082 137.057 0.176C138.029 0.434 139.160 0.563 140.449 0.563C141.996 0.563 143.514 0.217 145.002-0.475C146.490-1.166 147.814-2.273 148.975-3.797C150.135-5.320 151.072-7.283 151.787-9.686C152.502-12.088 152.859-15.000 152.859-18.422C152.859-21.375 152.566-23.977 151.980-26.227C151.395-28.477 150.557-30.363 149.467-31.887C148.377-33.410 147.070-34.559 145.547-35.332C144.023-36.105 142.324-36.492 140.449-36.492C139.535-36.492 138.650-36.387 137.795-36.176C136.939-35.965 136.131-35.666 135.369-35.279C134.607-34.893 133.904-34.430 133.260-33.891C132.615-33.352 132.059-32.754 131.590-32.098C131.543-32.449 131.391-32.877 131.133-33.381C130.875-33.885 130.494-34.365 129.990-34.822C129.486-35.279 128.859-35.672 128.109-36C127.359-36.328 126.457-36.492 125.402-36.492C124.418-36.492 123.480-36.387 122.590-36.176C121.699-35.965 120.867-35.695 120.094-35.367C119.320-35.039 118.600-34.658 117.932-34.225C117.264-33.791 116.660-33.352 116.121-32.906L116.859-32.027C117.187-32.285 117.492-32.484 117.773-32.625C118.055-32.766 118.395-32.836 118.793-32.836C119.543-32.836 120.076-32.584 120.393-32.080C120.709-31.576 120.867-30.984 120.867-30.305ZM131.660-7.910L131.660-27.492C131.660-27.984 131.789-28.500 132.047-29.039C132.305-29.578 132.639-30.064 133.049-30.498C133.459-30.932 133.922-31.295 134.438-31.588C134.953-31.881 135.469-32.027 135.984-32.027C136.875-32.027 137.678-31.787 138.393-31.307C139.107-30.826 139.723-30.053 140.238-28.986C140.754-27.920 141.146-26.520 141.416-24.785C141.686-23.051 141.820-20.930 141.820-18.422C141.820-16.383 141.715-14.467 141.504-12.674C141.293-10.881 140.953-9.311 140.484-7.963C140.016-6.615 139.418-5.549 138.691-4.764C137.965-3.979 137.086-3.586 136.055-3.586C135.258-3.586 134.584-3.779 134.033-4.166C133.482-4.553 133.031-4.992 132.680-5.484C132.328-5.977 132.070-6.457 131.906-6.926C131.742-7.395 131.660-7.723 131.660-7.910Z"></path><path d="M168.609-16.137L182.496-24.328C183.551-24.984 184.395-25.752 185.027-26.631C185.660-27.510 185.977-28.500 185.977-29.602C185.977-30.516 185.766-31.389 185.344-32.221C184.922-33.053 184.283-33.785 183.428-34.418C182.572-35.051 181.500-35.555 180.211-35.930C178.922-36.305 177.410-36.492 175.676-36.492C174.363-36.492 172.998-36.311 171.580-35.947C170.162-35.584 168.773-35.045 167.414-34.330C166.055-33.615 164.760-32.719 163.529-31.641C162.299-30.562 161.221-29.309 160.295-27.879C159.369-26.449 158.637-24.844 158.098-23.063C157.559-21.281 157.289-19.324 157.289-17.191C157.289-14.238 157.740-11.660 158.643-9.457C159.545-7.254 160.746-5.414 162.246-3.938C163.746-2.461 165.463-1.354 167.396-0.615C169.330 0.123 171.316 0.492 173.355 0.492C175.395 0.492 177.211 0.240 178.805-0.264C180.398-0.768 181.793-1.400 182.988-2.162C184.184-2.924 185.203-3.738 186.047-4.605C186.891-5.473 187.582-6.270 188.121-6.996L187.242-7.840C186.680-7.348 186.117-6.885 185.555-6.451C184.992-6.018 184.406-5.637 183.797-5.309C183.188-4.980 182.531-4.723 181.828-4.535C181.125-4.348 180.363-4.254 179.543-4.254C178.371-4.254 177.293-4.441 176.309-4.816C175.324-5.191 174.428-5.695 173.619-6.328C172.811-6.961 172.096-7.682 171.475-8.490C170.854-9.299 170.332-10.148 169.910-11.039C169.488-11.930 169.166-12.814 168.943-13.693C168.721-14.572 168.609-15.387 168.609-16.137ZM175.676-23.273L168.258-19.020C168.258-19.676 168.270-20.479 168.293-21.428C168.316-22.377 168.387-23.367 168.504-24.398C168.621-25.430 168.791-26.455 169.014-27.475C169.236-28.494 169.541-29.402 169.928-30.199C170.314-30.996 170.807-31.646 171.404-32.150C172.002-32.654 172.723-32.906 173.566-32.906C174.223-32.906 174.785-32.695 175.254-32.273C175.723-31.852 176.109-31.324 176.414-30.691C176.719-30.059 176.936-29.385 177.064-28.670C177.193-27.955 177.258-27.305 177.258-26.719C177.258-26.180 177.229-25.729 177.170-25.365C177.111-25.002 177.023-24.697 176.906-24.451C176.789-24.205 176.631-23.994 176.432-23.818C176.232-23.643 175.980-23.461 175.676-23.273Z"></path></g></g></svg>