<?xml version="1.0" encoding="UTF-8" standalone="no"?>
<svg
   xmlns:dc="http://purl.org/dc/elements/1.1/"
   xmlns:cc="http://creativecommons.org/ns#"
   xmlns:rdf="http://www.w3.org/1999/02/22-rdf-syntax-ns#"
   xmlns:svg="http://www.w3.org/2000/svg"
   xmlns="http://www.w3.org/2000/svg"
   xmlns:sodipodi="http://sodipodi.sourceforge.net/DTD/sodipodi-0.dtd"
   xmlns:inkscape="http://www.inkscape.org/namespaces/inkscape"
   viewBox="0 -46 299.99998 150"
   version="1.1"
   class="jsx-2263963463 artboard-inner"
   id="svg15"
   sodipodi:docname="logo-full.svg"
   inkscape:version="1.0.2 (e86c870879, 2021-01-15)"
   inkscape:export-filename="C:\Users\robot\Documents\zwipe\brand\logo-full.png"
   inkscape:export-xdpi="192"
   inkscape:export-ydpi="192"
   width="300"
   height="150">
  <metadata
     id="metadata21">
    <rdf:RDF>
      <cc:Work
         rdf:about="">
        <dc:format>image/svg+xml</dc:format>
        <dc:type
           rdf:resource="http://purl.org/dc/dcmitype/StillImage" />
        <dc:title></dc:title>
      </cc:Work>
    </rdf:RDF>
  </metadata>
  <defs
     id="defs19" />
  <sodipodi:namedview
     pagecolor="#ca413b"
     bordercolor="#666666"
     borderopacity="1"
     objecttolerance="10"
     gridtolerance="10"
     guidetolerance="10"
     inkscape:pageopacity="1"
     inkscape:pageshadow="2"
     inkscape:window-width="1858"
     inkscape:window-height="1057"
     id="namedview17"
     showgrid="false"
     inkscape:zoom="4.0803937"
     inkscape:cx="145.47579"
     inkscape:cy="50"
     inkscape:window-x="54"
     inkscape:window-y="488"
     inkscape:window-maximized="1"
     inkscape:current-layer="g13"
     inkscape:document-rotation="0" />
  <g
     transform="matrix(1.4200921,0,0,1.4200921,-0.99850225,28.438342)"
     fill="#ffffff"
     id="g13">
    <g
       id="line1"
       transform="translate(11.918077,17.604508)">
      <path
         d="m 23.344,-2.461 c -1.664,0 -3.082,-0.041 -4.254,-0.123 -1.172,-0.082 -2.127,-0.223 -2.865,-0.422 -0.739,-0.199 -1.278,-0.469 -1.618,-0.808 -0.339,-0.34 -0.509,-0.768 -0.509,-1.284 0,-0.609 0.175,-1.271 0.527,-1.986 0.352,-0.715 0.762,-1.447 1.23,-2.197 l 18.141,-29.321 c 0.75,-1.218 1.377,-2.279 1.881,-3.181 0.504,-0.903 0.902,-1.705 1.195,-2.408 0.293,-0.704 0.498,-1.325 0.616,-1.864 0.117,-0.539 0.175,-1.054 0.175,-1.547 0,-0.726 -0.304,-1.382 -0.914,-1.968 -0.609,-0.586 -1.558,-1.09 -2.847,-1.512 -1.29,-0.422 -2.936,-0.75 -4.94,-0.984 -2.004,-0.235 -4.4,-0.352 -7.189,-0.352 -1.453,0 -2.965,0.07 -4.535,0.211 -1.571,0.141 -3.118,0.387 -4.641,0.738 -1.524,0.352 -2.971,0.826 -4.342,1.424 -1.371,0.598 -2.578,1.342 -3.621,2.232 -1.043,0.891 -1.869,1.963 -2.479,3.217 -0.609,1.254 -0.914,2.701 -0.914,4.342 0,0.82 0.153,1.641 0.457,2.461 0.305,0.82 0.756,1.57 1.354,2.25 0.598,0.68 1.342,1.23 2.232,1.652 0.891,0.422 1.922,0.633 3.094,0.633 0.586,0 1.195,-0.099 1.828,-0.299 0.633,-0.199 1.213,-0.504 1.74,-0.914 0.528,-0.41 0.961,-0.937 1.301,-1.582 0.34,-0.644 0.51,-1.424 0.51,-2.338 0,-0.492 -0.082,-0.92 -0.246,-1.283 -0.164,-0.363 -0.363,-0.662 -0.598,-0.896 -0.234,-0.235 -0.48,-0.41 -0.738,-0.528 -0.258,-0.117 -0.469,-0.175 -0.633,-0.175 -0.234,0 -0.463,0.041 -0.685,0.123 -0.223,0.082 -0.452,0.175 -0.686,0.281 -0.234,0.105 -0.486,0.199 -0.756,0.281 -0.269,0.082 -0.568,0.123 -0.896,0.123 -0.492,0.047 -0.926,-0.012 -1.301,-0.176 -0.328,-0.117 -0.627,-0.351 -0.897,-0.703 -0.269,-0.351 -0.404,-0.879 -0.404,-1.582 0,-1.265 0.381,-2.326 1.143,-3.181 0.761,-0.856 1.722,-1.547 2.883,-2.075 1.16,-0.527 2.431,-0.908 3.814,-1.142 1.383,-0.235 2.707,-0.352 3.973,-0.352 0.492,0 1.148,0.006 1.968,0.018 0.821,0.012 1.629,0.082 2.426,0.211 0.797,0.129 1.488,0.351 2.074,0.668 0.586,0.316 0.879,0.779 0.879,1.388 0,0.282 -0.076,0.621 -0.228,1.02 -0.153,0.398 -0.352,0.826 -0.598,1.283 -0.246,0.457 -0.521,0.926 -0.826,1.406 -0.305,0.481 -0.598,0.955 -0.879,1.424 l -17.578,28.09 c -0.797,1.266 -1.477,2.373 -2.039,3.322 -0.563,0.95 -1.025,1.787 -1.389,2.514 -0.363,0.727 -0.627,1.383 -0.791,1.969 -0.164,0.586 -0.246,1.148 -0.246,1.687 0,0.633 0.229,1.254 0.686,1.863 0.457,0.61 1.341,1.155 2.654,1.635 1.312,0.481 3.152,0.867 5.52,1.16 2.367,0.293 5.449,0.44 9.246,0.44 3.187,0 6.07,-0.188 8.648,-0.563 2.578,-0.375 4.775,-1.019 6.592,-1.933 1.816,-0.914 3.217,-2.139 4.201,-3.674 0.984,-1.535 1.477,-3.463 1.477,-5.783 0,-0.914 -0.153,-1.799 -0.457,-2.655 -0.305,-0.855 -0.762,-1.611 -1.372,-2.267 -0.609,-0.656 -1.365,-1.184 -2.267,-1.582 -0.902,-0.399 -1.951,-0.598 -3.147,-0.598 -0.609,0 -1.242,0.1 -1.898,0.299 -0.656,0.199 -1.254,0.51 -1.793,0.932 -0.539,0.422 -0.984,0.961 -1.336,1.617 -0.352,0.656 -0.527,1.453 -0.527,2.39 0,0.493 0.07,0.92 0.211,1.284 0.14,0.363 0.328,0.662 0.562,0.896 0.235,0.235 0.481,0.41 0.738,0.527 0.258,0.118 0.516,0.176 0.774,0.176 0.234,0 0.463,-0.041 0.685,-0.123 0.223,-0.082 0.457,-0.176 0.704,-0.281 0.246,-0.105 0.509,-0.199 0.791,-0.281 0.281,-0.082 0.597,-0.123 0.949,-0.123 0.468,-0.047 0.89,0.011 1.265,0.175 0.328,0.141 0.627,0.387 0.897,0.739 0.269,0.351 0.404,0.89 0.404,1.617 0,1.219 -0.369,2.232 -1.107,3.041 -0.739,0.809 -1.67,1.459 -2.795,1.951 -1.125,0.492 -2.367,0.838 -3.727,1.037 -1.359,0.199 -2.672,0.299 -3.937,0.299 z"
         id="path2" />
      <path
         d="m 89.121,-25.348 c 0,2.25 -0.135,4.43 -0.404,6.539 -0.27,2.11 -0.651,3.973 -1.143,5.59 -0.492,1.617 -1.078,2.918 -1.758,3.903 -0.679,0.984 -1.418,1.476 -2.214,1.476 -0.75,0 -1.401,-0.498 -1.952,-1.494 -0.55,-0.996 -1.06,-2.443 -1.529,-4.342 -0.469,-1.898 -0.914,-4.23 -1.336,-6.996 -0.422,-2.766 -0.855,-5.906 -1.301,-9.422 -0.164,-1.289 -0.386,-2.349 -0.668,-3.181 -0.281,-0.832 -0.65,-1.489 -1.107,-1.969 -0.457,-0.481 -1.031,-0.809 -1.723,-0.985 -0.691,-0.175 -1.541,-0.263 -2.548,-0.263 -2.297,0 -3.827,0.551 -4.588,1.652 -0.762,1.102 -0.967,2.754 -0.616,4.957 0.141,0.774 0.27,1.664 0.387,2.672 0.117,1.008 0.24,2.092 0.369,3.252 0.129,1.16 0.276,2.373 0.44,3.639 0.164,1.265 0.363,2.543 0.597,3.832 -0.281,1.289 -0.609,2.467 -0.984,3.533 -0.375,1.066 -0.773,1.975 -1.195,2.725 -0.422,0.75 -0.868,1.335 -1.336,1.757 -0.469,0.422 -0.949,0.633 -1.442,0.633 -0.75,0 -1.4,-0.463 -1.951,-1.389 -0.551,-0.925 -1.06,-2.296 -1.529,-4.113 -0.469,-1.816 -0.908,-4.072 -1.319,-6.767 -0.41,-2.696 -0.826,-5.813 -1.248,-9.352 -0.093,-0.656 -0.246,-1.394 -0.457,-2.215 -0.211,-0.82 -0.568,-1.588 -1.072,-2.303 -0.504,-0.714 -1.189,-1.312 -2.056,-1.792 -0.868,-0.481 -2.004,-0.721 -3.411,-0.721 -0.984,0 -1.922,0.105 -2.812,0.316 -0.891,0.211 -1.723,0.481 -2.496,0.809 -0.774,0.328 -1.494,0.709 -2.162,1.142 -0.668,0.434 -1.272,0.873 -1.811,1.319 l 0.738,0.879 c 0.328,-0.258 0.633,-0.457 0.914,-0.598 0.282,-0.141 0.622,-0.211 1.02,-0.211 0.75,0 1.283,0.258 1.6,0.773 0.316,0.516 0.556,1.243 0.72,2.18 0.141,1.031 0.282,2.25 0.422,3.656 0.141,1.407 0.317,2.918 0.528,4.536 0.21,1.617 0.468,3.293 0.773,5.027 0.305,1.734 0.685,3.422 1.143,5.062 0.457,1.641 1.001,3.2 1.634,4.676 0.633,1.477 1.383,2.772 2.25,3.885 0.867,1.113 1.869,1.992 3.006,2.637 1.137,0.644 2.444,0.967 3.92,0.967 1.195,0 2.309,-0.258 3.34,-0.774 1.031,-0.516 1.975,-1.23 2.83,-2.144 0.855,-0.915 1.635,-1.987 2.338,-3.217 0.703,-1.231 1.324,-2.561 1.863,-3.991 0.469,1.407 1.014,2.725 1.635,3.956 0.621,1.23 1.342,2.302 2.162,3.216 0.82,0.914 1.752,1.635 2.795,2.162 1.043,0.528 2.221,0.792 3.533,0.792 1.664,0 3.153,-0.475 4.465,-1.424 1.312,-0.95 2.473,-2.215 3.48,-3.797 1.008,-1.582 1.87,-3.393 2.584,-5.432 0.715,-2.039 1.301,-4.148 1.758,-6.328 0.457,-2.18 0.791,-4.348 1.002,-6.504 0.211,-2.156 0.317,-4.137 0.317,-5.941 0,-1.266 -0.041,-2.455 -0.123,-3.569 -0.082,-1.113 -0.229,-2.009 -0.44,-2.689 -0.187,-0.539 -0.433,-0.902 -0.738,-1.09 -0.305,-0.187 -0.797,-0.281 -1.477,-0.281 -0.258,0 -0.592,0.035 -1.002,0.105 -0.41,0.071 -0.808,0.188 -1.195,0.352 -0.387,0.164 -0.721,0.363 -1.002,0.597 -0.281,0.235 -0.422,0.528 -0.422,0.879 0,0.375 0.106,0.78 0.317,1.213 0.211,0.434 0.439,0.985 0.685,1.653 0.246,0.668 0.475,1.505 0.686,2.513 0.211,1.008 0.316,2.285 0.316,3.832 z"
         id="path4" />
      <path
         d="m 111.586,-3.164 v -27.492 c 0,-0.516 -0.041,-1.114 -0.123,-1.793 -0.082,-0.68 -0.322,-1.319 -0.721,-1.916 -0.398,-0.598 -1.019,-1.102 -1.863,-1.512 -0.844,-0.41 -2.027,-0.615 -3.551,-0.615 -0.984,0 -1.922,0.105 -2.812,0.316 -0.891,0.211 -1.723,0.481 -2.496,0.809 -0.774,0.328 -1.495,0.709 -2.163,1.142 -0.668,0.434 -1.271,0.873 -1.81,1.319 l 0.738,0.879 c 0.328,-0.258 0.633,-0.457 0.914,-0.598 0.281,-0.141 0.621,-0.211 1.02,-0.211 0.75,0 1.283,0.252 1.599,0.756 0.317,0.504 0.475,1.096 0.475,1.775 v 27.141 c 0,0.258 0.041,0.598 0.123,1.019 0.082,0.422 0.299,0.833 0.65,1.231 0.352,0.398 0.879,0.744 1.582,1.037 0.704,0.293 1.676,0.44 2.918,0.44 1.243,0 2.227,-0.135 2.954,-0.405 0.726,-0.269 1.283,-0.597 1.669,-0.984 0.387,-0.387 0.633,-0.797 0.739,-1.231 0.105,-0.433 0.158,-0.802 0.158,-1.107 z M 99.703,-44.508 c 0,0.68 0.147,1.313 0.44,1.899 0.293,0.586 0.703,1.095 1.23,1.529 0.527,0.434 1.137,0.779 1.828,1.037 0.692,0.258 1.447,0.387 2.268,0.387 0.797,0 1.541,-0.129 2.232,-0.387 0.692,-0.258 1.295,-0.603 1.811,-1.037 0.515,-0.434 0.92,-0.943 1.213,-1.529 0.293,-0.586 0.439,-1.219 0.439,-1.899 0,-0.656 -0.146,-1.283 -0.439,-1.881 -0.293,-0.597 -0.698,-1.119 -1.213,-1.564 -0.516,-0.445 -1.119,-0.797 -1.811,-1.055 -0.691,-0.258 -1.435,-0.387 -2.232,-0.387 -0.821,0 -1.576,0.129 -2.268,0.387 -0.691,0.258 -1.301,0.61 -1.828,1.055 -0.527,0.445 -0.937,0.967 -1.23,1.564 -0.293,0.598 -0.44,1.225 -0.44,1.881 z"
         id="path6" />
      <path
         d="m 120.867,-30.305 v 44.578 c 0,0.258 0.047,0.592 0.141,1.002 0.094,0.411 0.328,0.821 0.703,1.231 0.375,0.41 0.92,0.762 1.635,1.055 0.715,0.293 1.693,0.439 2.935,0.439 1.242,0 2.221,-0.141 2.936,-0.422 0.715,-0.281 1.254,-0.615 1.617,-1.002 0.363,-0.387 0.592,-0.791 0.686,-1.213 0.093,-0.422 0.14,-0.785 0.14,-1.09 V -2.883 c 0.281,0.258 0.656,0.58 1.125,0.967 0.469,0.387 1.055,0.768 1.758,1.143 0.703,0.375 1.541,0.691 2.514,0.949 0.972,0.258 2.103,0.387 3.392,0.387 1.547,0 3.065,-0.346 4.553,-1.038 1.488,-0.691 2.812,-1.798 3.973,-3.322 1.16,-1.523 2.097,-3.486 2.812,-5.889 0.715,-2.402 1.072,-5.314 1.072,-8.736 0,-2.953 -0.293,-5.555 -0.879,-7.805 -0.585,-2.25 -1.423,-4.136 -2.513,-5.66 -1.09,-1.523 -2.397,-2.672 -3.92,-3.445 -1.524,-0.773 -3.223,-1.16 -5.098,-1.16 -0.914,0 -1.799,0.105 -2.654,0.316 -0.856,0.211 -1.664,0.51 -2.426,0.897 -0.762,0.386 -1.465,0.849 -2.109,1.388 -0.645,0.539 -1.201,1.137 -1.67,1.793 -0.047,-0.351 -0.199,-0.779 -0.457,-1.283 -0.258,-0.504 -0.639,-0.984 -1.143,-1.441 -0.504,-0.457 -1.131,-0.85 -1.881,-1.178 -0.75,-0.328 -1.652,-0.492 -2.707,-0.492 -0.984,0 -1.922,0.105 -2.812,0.316 -0.891,0.211 -1.723,0.481 -2.496,0.809 -0.774,0.328 -1.494,0.709 -2.162,1.142 -0.668,0.434 -1.272,0.873 -1.811,1.319 l 0.738,0.879 c 0.328,-0.258 0.633,-0.457 0.914,-0.598 0.282,-0.141 0.622,-0.211 1.02,-0.211 0.75,0 1.283,0.252 1.6,0.756 0.316,0.504 0.474,1.096 0.474,1.775 z M 131.66,-7.91 v -19.582 c 0,-0.492 0.129,-1.008 0.387,-1.547 0.258,-0.539 0.592,-1.025 1.002,-1.459 0.41,-0.434 0.873,-0.797 1.389,-1.09 0.515,-0.293 1.031,-0.439 1.546,-0.439 0.891,0 1.694,0.24 2.409,0.72 0.714,0.481 1.33,1.254 1.845,2.321 0.516,1.066 0.908,2.466 1.178,4.201 0.27,1.734 0.404,3.855 0.404,6.363 0,2.039 -0.105,3.955 -0.316,5.748 -0.211,1.793 -0.551,3.363 -1.02,4.711 -0.468,1.348 -1.066,2.414 -1.793,3.199 -0.726,0.785 -1.605,1.178 -2.636,1.178 -0.797,0 -1.471,-0.193 -2.022,-0.58 -0.551,-0.387 -1.002,-0.826 -1.353,-1.318 -0.352,-0.493 -0.61,-0.973 -0.774,-1.442 -0.164,-0.469 -0.246,-0.797 -0.246,-0.984 z"
         id="path8" />
      <path
         d="m 168.609,-16.137 13.887,-8.191 c 1.055,-0.656 1.899,-1.424 2.531,-2.303 0.633,-0.879 0.95,-1.869 0.95,-2.971 0,-0.914 -0.211,-1.787 -0.633,-2.619 -0.422,-0.832 -1.061,-1.564 -1.916,-2.197 -0.856,-0.633 -1.928,-1.137 -3.217,-1.512 -1.289,-0.375 -2.801,-0.562 -4.535,-0.562 -1.313,0 -2.678,0.181 -4.096,0.545 -1.418,0.363 -2.807,0.902 -4.166,1.617 -1.359,0.715 -2.654,1.611 -3.885,2.689 -1.23,1.079 -2.308,2.332 -3.234,3.762 -0.926,1.43 -1.658,3.035 -2.197,4.816 -0.539,1.782 -0.809,3.739 -0.809,5.872 0,2.953 0.451,5.531 1.354,7.734 0.902,2.203 2.103,4.043 3.603,5.519 1.5,1.477 3.217,2.584 5.15,3.323 1.934,0.738 3.92,1.107 5.959,1.107 2.04,0 3.856,-0.252 5.45,-0.756 1.593,-0.504 2.988,-1.136 4.183,-1.898 1.196,-0.762 2.215,-1.576 3.059,-2.443 0.844,-0.868 1.535,-1.665 2.074,-2.391 l -0.879,-0.844 c -0.562,0.492 -1.125,0.955 -1.687,1.389 -0.563,0.433 -1.149,0.814 -1.758,1.142 -0.609,0.329 -1.266,0.586 -1.969,0.774 -0.703,0.187 -1.465,0.281 -2.285,0.281 -1.172,0 -2.25,-0.187 -3.234,-0.562 -0.985,-0.375 -1.881,-0.879 -2.69,-1.512 -0.808,-0.633 -1.523,-1.354 -2.144,-2.162 -0.621,-0.809 -1.143,-1.658 -1.565,-2.549 -0.422,-0.891 -0.744,-1.775 -0.967,-2.654 -0.222,-0.879 -0.334,-1.694 -0.334,-2.444 z m 7.067,-7.136 -7.418,4.253 c 0,-0.656 0.012,-1.459 0.035,-2.408 0.023,-0.949 0.094,-1.939 0.211,-2.97 0.117,-1.032 0.287,-2.057 0.51,-3.077 0.222,-1.019 0.527,-1.927 0.914,-2.724 0.386,-0.797 0.879,-1.447 1.476,-1.951 0.598,-0.504 1.319,-0.756 2.162,-0.756 0.657,0 1.219,0.211 1.688,0.633 0.469,0.421 0.855,0.949 1.16,1.582 0.305,0.632 0.522,1.306 0.65,2.021 0.129,0.715 0.194,1.365 0.194,1.951 0,0.539 -0.029,0.99 -0.088,1.354 -0.059,0.363 -0.147,0.668 -0.264,0.914 -0.117,0.246 -0.275,0.457 -0.474,0.633 -0.2,0.175 -0.452,0.357 -0.756,0.545 z"
         id="path10" />
    </g>
  </g>
</svg>
